<?xml version="1.0" encoding="UTF-8" standalone="no"?>
<!DOCTYPE svg PUBLIC "-//W3C//DTD SVG 1.1//EN" "http://www.w3.org/Graphics/SVG/1.1/DTD/svg11.dtd">
<svg width="100%" height="100%" viewBox="0 0 2505 509" version="1.1" xmlns="http://www.w3.org/2000/svg" xmlns:xlink="http://www.w3.org/1999/xlink" xml:space="preserve" xmlns:serif="http://www.serif.com/" style="fill-rule:evenodd;clip-rule:evenodd;stroke-linejoin:round;stroke-miterlimit:2;">
    <g transform="matrix(1,0,0,1,-1257.033333,-7660.9525)">
        <g id="ページ1" transform="matrix(4.166667,0,0,4.166667,0,0)">
            <rect x="0" y="0" width="2000" height="2350" style="fill:none;"/>
            <g id="レイヤー-1" serif:id="レイヤー 1">
                <g>
                    <g transform="matrix(1,0,0,1,464.7538,1948.4592)">
                        <path d="M0,-20.769L0,-13.9L-0.542,-13.9C-0.718,-15.218 -1.032,-16.267 -1.486,-17.049C-1.941,-17.83 -2.587,-18.45 -3.427,-18.909C-4.267,-19.368 -5.136,-19.597 -6.034,-19.597C-7.05,-19.597 -7.89,-19.287 -8.554,-18.667C-9.218,-18.047 -9.549,-17.342 -9.549,-16.551C-9.549,-15.945 -9.34,-15.394 -8.92,-14.895C-8.315,-14.163 -6.874,-13.187 -4.599,-11.966C-2.744,-10.97 -1.477,-10.206 -0.798,-9.674C-0.119,-9.142 0.403,-8.514 0.769,-7.792C1.135,-7.069 1.318,-6.313 1.318,-5.522C1.318,-4.018 0.735,-2.721 -0.432,-1.633C-1.599,-0.544 -3.1,0 -4.936,0C-5.512,0 -6.054,-0.044 -6.562,-0.132C-6.864,-0.18 -7.492,-0.359 -8.444,-0.666C-9.396,-0.974 -9.999,-1.127 -10.253,-1.127C-10.497,-1.127 -10.69,-1.054 -10.831,-0.908C-10.973,-0.761 -11.078,-0.459 -11.146,0L-11.688,0L-11.688,-6.81L-11.146,-6.81C-10.892,-5.385 -10.551,-4.318 -10.121,-3.61C-9.691,-2.902 -9.035,-2.314 -8.151,-1.845C-7.267,-1.376 -6.298,-1.142 -5.243,-1.142C-4.023,-1.142 -3.059,-1.464 -2.351,-2.109C-1.643,-2.753 -1.289,-3.515 -1.289,-4.394C-1.289,-4.882 -1.423,-5.375 -1.692,-5.873C-1.96,-6.371 -2.378,-6.835 -2.944,-7.265C-3.325,-7.557 -4.365,-8.18 -6.064,-9.132C-7.763,-10.084 -8.971,-10.843 -9.689,-11.41C-10.407,-11.976 -10.951,-12.601 -11.322,-13.284C-11.693,-13.968 -11.878,-14.72 -11.878,-15.54C-11.878,-16.966 -11.332,-18.193 -10.238,-19.224C-9.145,-20.254 -7.753,-20.769 -6.064,-20.769C-5.009,-20.769 -3.891,-20.51 -2.71,-19.993C-2.163,-19.749 -1.777,-19.626 -1.553,-19.626C-1.299,-19.626 -1.091,-19.702 -0.93,-19.853C-0.769,-20.005 -0.639,-20.31 -0.542,-20.769L0,-20.769Z" style="fill:rgb(19,28,32);fill-rule:nonzero;"/>
                    </g>
                    <g transform="matrix(1,0,0,1,483.9817,1948.4159)">
                        <path d="M0,-13.827L0,-5.698C0,-4.145 0.037,-3.195 0.11,-2.849C0.183,-2.502 0.3,-2.261 0.461,-2.124C0.622,-1.987 0.81,-1.919 1.025,-1.919C1.328,-1.919 1.669,-2.002 2.05,-2.168L2.255,-1.656L-1.758,0L-2.417,0L-2.417,-2.842C-3.569,-1.592 -4.448,-0.806 -5.053,-0.484C-5.659,-0.161 -6.298,0 -6.972,0C-7.724,0 -8.376,-0.218 -8.927,-0.652C-9.479,-1.086 -9.863,-1.646 -10.077,-2.329C-10.292,-3.013 -10.4,-3.979 -10.4,-5.229L-10.4,-11.22C-10.4,-11.854 -10.468,-12.294 -10.604,-12.538C-10.741,-12.782 -10.944,-12.97 -11.212,-13.102C-11.481,-13.234 -11.967,-13.295 -12.67,-13.285L-12.67,-13.827L-7.968,-13.827L-7.968,-4.848C-7.968,-3.598 -7.751,-2.778 -7.316,-2.388C-6.882,-1.997 -6.357,-1.802 -5.742,-1.802C-5.322,-1.802 -4.846,-1.934 -4.314,-2.197C-3.782,-2.461 -3.149,-2.964 -2.417,-3.706L-2.417,-11.307C-2.417,-12.069 -2.556,-12.584 -2.834,-12.853C-3.113,-13.121 -3.691,-13.265 -4.57,-13.285L-4.57,-13.827L0,-13.827Z" style="fill:rgb(19,28,32);fill-rule:nonzero;"/>
                    </g>
                    <g transform="matrix(1,0,0,1,496.9553,1953.7767)">
                        <path d="M0,-18.88C-0.723,-18.88 -1.328,-18.592 -1.816,-18.016C-2.304,-17.44 -2.548,-16.556 -2.548,-15.365C-2.548,-13.822 -2.217,-12.626 -1.553,-11.776C-1.045,-11.132 -0.4,-10.81 0.381,-10.81C1.123,-10.81 1.733,-11.088 2.212,-11.644C2.69,-12.201 2.929,-13.075 2.929,-14.266C2.929,-15.819 2.593,-17.034 1.919,-17.913C1.421,-18.558 0.781,-18.88 0,-18.88M-2.695,-5.771C-3.154,-5.273 -3.501,-4.81 -3.735,-4.38C-3.969,-3.95 -4.087,-3.555 -4.087,-3.193C-4.087,-2.725 -3.803,-2.315 -3.237,-1.963C-2.261,-1.358 -0.849,-1.055 0.996,-1.055C2.754,-1.055 4.05,-1.365 4.885,-1.985C5.72,-2.605 6.137,-3.266 6.137,-3.97C6.137,-4.477 5.888,-4.839 5.39,-5.054C4.882,-5.268 3.877,-5.395 2.373,-5.434C0.176,-5.493 -1.513,-5.605 -2.695,-5.771M-2.548,-10.663C-3.369,-11.063 -3.998,-11.623 -4.438,-12.34C-4.877,-13.058 -5.097,-13.851 -5.097,-14.72C-5.097,-16.048 -4.597,-17.191 -3.596,-18.148C-2.595,-19.105 -1.313,-19.583 0.249,-19.583C1.528,-19.583 2.636,-19.271 3.574,-18.646L6.415,-18.646C6.835,-18.646 7.079,-18.634 7.148,-18.609C7.216,-18.585 7.265,-18.543 7.294,-18.485C7.353,-18.397 7.382,-18.241 7.382,-18.016C7.382,-17.762 7.357,-17.586 7.309,-17.489C7.28,-17.44 7.228,-17.401 7.155,-17.371C7.082,-17.342 6.835,-17.327 6.415,-17.327L4.672,-17.327C5.219,-16.625 5.493,-15.726 5.493,-14.633C5.493,-13.383 5.014,-12.313 4.057,-11.425C3.1,-10.536 1.816,-10.092 0.205,-10.092C-0.459,-10.092 -1.137,-10.189 -1.831,-10.385C-2.261,-10.014 -2.551,-9.689 -2.702,-9.411C-2.854,-9.133 -2.929,-8.896 -2.929,-8.701C-2.929,-8.534 -2.849,-8.373 -2.687,-8.217C-2.527,-8.061 -2.212,-7.948 -1.743,-7.88C-1.47,-7.841 -0.786,-7.807 0.308,-7.778C2.319,-7.729 3.623,-7.661 4.219,-7.573C5.126,-7.446 5.851,-7.109 6.393,-6.562C6.935,-6.015 7.206,-5.342 7.206,-4.541C7.206,-3.438 6.689,-2.402 5.654,-1.436C4.131,-0.01 2.143,0.703 -0.307,0.703C-2.192,0.703 -3.784,0.278 -5.082,-0.572C-5.815,-1.06 -6.181,-1.567 -6.181,-2.095C-6.181,-2.329 -6.127,-2.564 -6.02,-2.798C-5.854,-3.159 -5.512,-3.662 -4.995,-4.307C-4.926,-4.394 -4.428,-4.922 -3.501,-5.888C-4.008,-6.191 -4.367,-6.462 -4.577,-6.701C-4.787,-6.94 -4.892,-7.211 -4.892,-7.514C-4.892,-7.856 -4.753,-8.256 -4.475,-8.715C-4.196,-9.174 -3.554,-9.823 -2.548,-10.663" style="fill:rgb(19,28,32);fill-rule:nonzero;"/>
                    </g>
                    <g transform="matrix(1,0,0,1,517.0181,1937.3571)">
                        <path d="M0,7.763L0,2.651C-1.475,3.237 -2.427,3.652 -2.856,3.896C-3.628,4.326 -4.18,4.775 -4.511,5.244C-4.843,5.713 -5.009,6.225 -5.009,6.782C-5.009,7.485 -4.8,8.068 -4.38,8.532C-3.96,8.996 -3.477,9.228 -2.929,9.228C-2.187,9.228 -1.211,8.739 0,7.763M0,8.715C-1.377,9.779 -2.241,10.395 -2.593,10.56C-3.12,10.804 -3.682,10.927 -4.277,10.927C-5.205,10.927 -5.969,10.61 -6.569,9.975C-7.17,9.34 -7.47,8.505 -7.47,7.47C-7.47,6.816 -7.324,6.25 -7.031,5.771C-6.63,5.107 -5.935,4.482 -4.943,3.896C-3.952,3.31 -2.305,2.598 0,1.758L0,1.231C0,-0.107 -0.212,-1.025 -0.637,-1.523C-1.062,-2.021 -1.68,-2.27 -2.49,-2.27C-3.105,-2.27 -3.594,-2.104 -3.955,-1.772C-4.326,-1.44 -4.511,-1.059 -4.511,-0.63L-4.482,0.22C-4.482,0.669 -4.597,1.016 -4.826,1.26C-5.056,1.504 -5.356,1.626 -5.727,1.626C-6.088,1.626 -6.384,1.499 -6.613,1.245C-6.843,0.991 -6.957,0.645 -6.957,0.205C-6.957,-0.635 -6.528,-1.406 -5.668,-2.109C-4.809,-2.812 -3.603,-3.164 -2.051,-3.164C-0.86,-3.164 0.117,-2.963 0.879,-2.563C1.455,-2.26 1.879,-1.787 2.153,-1.142C2.329,-0.722 2.417,0.137 2.417,1.436L2.417,5.991C2.417,7.27 2.441,8.054 2.49,8.342C2.539,8.63 2.619,8.823 2.732,8.92C2.844,9.018 2.973,9.067 3.12,9.067C3.276,9.067 3.412,9.032 3.53,8.964C3.735,8.837 4.13,8.481 4.716,7.895L4.716,8.715C3.622,10.18 2.578,10.912 1.582,10.912C1.103,10.912 0.723,10.746 0.439,10.414C0.156,10.082 0.01,9.516 0,8.715" style="fill:rgb(19,28,32);fill-rule:nonzero;"/>
                    </g>
                    <g transform="matrix(1,0,0,1,525.5829,1948.4159)">
                        <path d="M0,-13.827L5.624,-13.827L5.624,-13.285C5.107,-13.246 4.768,-13.153 4.606,-13.007C4.445,-12.86 4.365,-12.65 4.365,-12.377C4.365,-12.074 4.447,-11.708 4.614,-11.278L7.485,-3.56L10.37,-9.843L9.608,-11.82C9.374,-12.406 9.066,-12.811 8.685,-13.036C8.471,-13.173 8.07,-13.256 7.485,-13.285L7.485,-13.827L13.871,-13.827L13.871,-13.285C13.167,-13.256 12.669,-13.129 12.376,-12.904C12.181,-12.748 12.083,-12.499 12.083,-12.157C12.083,-11.962 12.123,-11.762 12.201,-11.557L15.247,-3.852L18.074,-11.278C18.269,-11.806 18.367,-12.225 18.367,-12.538C18.367,-12.723 18.272,-12.89 18.081,-13.036C17.891,-13.183 17.518,-13.265 16.961,-13.285L16.961,-13.827L21.194,-13.827L21.194,-13.285C20.344,-13.158 19.719,-12.582 19.319,-11.557L14.837,0L14.237,0L10.883,-8.569L6.972,0L6.43,0L2.124,-11.278C1.84,-11.991 1.562,-12.472 1.289,-12.721C1.015,-12.97 0.586,-13.158 0,-13.285L0,-13.827Z" style="fill:rgb(19,28,32);fill-rule:nonzero;"/>
                    </g>
                    <g transform="matrix(1,0,0,1,559.1944,1937.3571)">
                        <path d="M0,7.763L0,2.651C-1.475,3.237 -2.427,3.652 -2.856,3.896C-3.628,4.326 -4.179,4.775 -4.511,5.244C-4.843,5.713 -5.009,6.225 -5.009,6.782C-5.009,7.485 -4.8,8.068 -4.379,8.532C-3.96,8.996 -3.477,9.228 -2.929,9.228C-2.187,9.228 -1.211,8.739 0,7.763M0,8.715C-1.377,9.779 -2.241,10.395 -2.593,10.56C-3.12,10.804 -3.682,10.927 -4.277,10.927C-5.205,10.927 -5.969,10.61 -6.569,9.975C-7.17,9.34 -7.47,8.505 -7.47,7.47C-7.47,6.816 -7.324,6.25 -7.031,5.771C-6.63,5.107 -5.935,4.482 -4.943,3.896C-3.952,3.31 -2.305,2.598 0,1.758L0,1.231C0,-0.107 -0.212,-1.025 -0.637,-1.523C-1.062,-2.021 -1.68,-2.27 -2.49,-2.27C-3.105,-2.27 -3.594,-2.104 -3.955,-1.772C-4.326,-1.44 -4.511,-1.059 -4.511,-0.63L-4.482,0.22C-4.482,0.669 -4.597,1.016 -4.826,1.26C-5.056,1.504 -5.356,1.626 -5.727,1.626C-6.088,1.626 -6.384,1.499 -6.613,1.245C-6.843,0.991 -6.957,0.645 -6.957,0.205C-6.957,-0.635 -6.528,-1.406 -5.668,-2.109C-4.809,-2.812 -3.603,-3.164 -2.051,-3.164C-0.86,-3.164 0.117,-2.963 0.879,-2.563C1.455,-2.26 1.879,-1.787 2.153,-1.142C2.329,-0.722 2.417,0.137 2.417,1.436L2.417,5.991C2.417,7.27 2.441,8.054 2.49,8.342C2.539,8.63 2.619,8.823 2.732,8.92C2.844,9.018 2.973,9.067 3.12,9.067C3.276,9.067 3.413,9.032 3.53,8.964C3.735,8.837 4.13,8.481 4.716,7.895L4.716,8.715C3.622,10.18 2.578,10.912 1.582,10.912C1.103,10.912 0.723,10.746 0.439,10.414C0.156,10.082 0.01,9.516 0,8.715" style="fill:rgb(19,28,32);fill-rule:nonzero;"/>
                    </g>
                    <g transform="matrix(1,0,0,1,572.4314,1948.0055)">
                        <path d="M0,-13.812L0,-10.795C1.123,-12.806 2.275,-13.812 3.457,-13.812C3.994,-13.812 4.438,-13.648 4.79,-13.321C5.141,-12.994 5.317,-12.616 5.317,-12.186C5.317,-11.805 5.19,-11.483 4.936,-11.22C4.682,-10.956 4.38,-10.824 4.028,-10.824C3.686,-10.824 3.303,-10.992 2.878,-11.329C2.454,-11.666 2.139,-11.835 1.934,-11.835C1.758,-11.835 1.567,-11.737 1.362,-11.542C0.923,-11.141 0.469,-10.482 0,-9.564L0,-3.134C0,-2.392 0.093,-1.831 0.279,-1.45C0.405,-1.186 0.63,-0.967 0.952,-0.791C1.274,-0.615 1.738,-0.527 2.344,-0.527L2.344,0L-4.526,0L-4.526,-0.527C-3.842,-0.527 -3.335,-0.634 -3.002,-0.849C-2.759,-1.006 -2.587,-1.255 -2.49,-1.597C-2.441,-1.762 -2.417,-2.236 -2.417,-3.017L-2.417,-8.217C-2.417,-9.779 -2.448,-10.709 -2.512,-11.007C-2.575,-11.305 -2.692,-11.522 -2.863,-11.659C-3.034,-11.795 -3.247,-11.864 -3.501,-11.864C-3.803,-11.864 -4.145,-11.791 -4.526,-11.644L-4.672,-12.171L-0.615,-13.812L0,-13.812Z" style="fill:rgb(19,28,32);fill-rule:nonzero;"/>
                    </g>
                    <g transform="matrix(1,0,0,1,589.6968,1937.3571)">
                        <path d="M0,7.763L0,2.651C-1.475,3.237 -2.427,3.652 -2.856,3.896C-3.628,4.326 -4.179,4.775 -4.511,5.244C-4.843,5.713 -5.009,6.225 -5.009,6.782C-5.009,7.485 -4.8,8.068 -4.379,8.532C-3.96,8.996 -3.477,9.228 -2.929,9.228C-2.187,9.228 -1.211,8.739 0,7.763M0,8.715C-1.377,9.779 -2.241,10.395 -2.593,10.56C-3.12,10.804 -3.682,10.927 -4.277,10.927C-5.205,10.927 -5.969,10.61 -6.569,9.975C-7.17,9.34 -7.47,8.505 -7.47,7.47C-7.47,6.816 -7.324,6.25 -7.031,5.771C-6.63,5.107 -5.935,4.482 -4.943,3.896C-3.952,3.31 -2.305,2.598 0,1.758L0,1.231C0,-0.107 -0.212,-1.025 -0.637,-1.523C-1.062,-2.021 -1.68,-2.27 -2.49,-2.27C-3.105,-2.27 -3.594,-2.104 -3.955,-1.772C-4.326,-1.44 -4.511,-1.059 -4.511,-0.63L-4.482,0.22C-4.482,0.669 -4.597,1.016 -4.826,1.26C-5.056,1.504 -5.356,1.626 -5.727,1.626C-6.088,1.626 -6.384,1.499 -6.613,1.245C-6.843,0.991 -6.957,0.645 -6.957,0.205C-6.957,-0.635 -6.528,-1.406 -5.668,-2.109C-4.809,-2.812 -3.603,-3.164 -2.051,-3.164C-0.86,-3.164 0.117,-2.963 0.879,-2.563C1.455,-2.26 1.879,-1.787 2.153,-1.142C2.329,-0.722 2.417,0.137 2.417,1.436L2.417,5.991C2.417,7.27 2.441,8.054 2.49,8.342C2.539,8.63 2.619,8.823 2.732,8.92C2.844,9.018 2.973,9.067 3.12,9.067C3.276,9.067 3.413,9.032 3.53,8.964C3.735,8.837 4.13,8.481 4.716,7.895L4.716,8.715C3.622,10.18 2.578,10.912 1.582,10.912C1.103,10.912 0.723,10.746 0.439,10.414C0.156,10.082 0.01,9.516 0,8.715" style="fill:rgb(19,28,32);fill-rule:nonzero;"/>
                    </g>
                    <g transform="matrix(1,0,0,1,621.4441,1928.1445)">
                        <path d="M0,19.861L-7.675,3.149L-7.675,16.419C-7.675,17.64 -7.543,18.401 -7.279,18.704C-6.918,19.114 -6.347,19.319 -5.566,19.319L-4.863,19.319L-4.863,19.861L-11.776,19.861L-11.776,19.319L-11.073,19.319C-10.233,19.319 -9.638,19.065 -9.286,18.557C-9.071,18.245 -8.964,17.532 -8.964,16.419L-8.964,3.442C-8.964,2.563 -9.061,1.928 -9.257,1.538C-9.393,1.255 -9.645,1.018 -10.011,0.828C-10.377,0.637 -10.965,0.542 -11.776,0.542L-11.776,0L-6.151,0L1.055,15.54L8.144,0L13.768,0L13.768,0.542L13.08,0.542C12.23,0.542 11.63,0.796 11.278,1.304C11.063,1.616 10.956,2.329 10.956,3.442L10.956,16.419C10.956,17.64 11.093,18.401 11.366,18.704C11.727,19.114 12.299,19.319 13.08,19.319L13.768,19.319L13.768,19.861L5.332,19.861L5.332,19.319L6.034,19.319C6.884,19.319 7.48,19.065 7.822,18.557C8.036,18.245 8.144,17.532 8.144,16.419L8.144,3.149L0.483,19.861L0,19.861Z" style="fill:rgb(19,28,32);fill-rule:nonzero;"/>
                    </g>
                    <g transform="matrix(1,0,0,1,647.9808,1937.3571)">
                        <path d="M0,7.763L0,2.651C-1.475,3.237 -2.427,3.652 -2.856,3.896C-3.628,4.326 -4.18,4.775 -4.511,5.244C-4.843,5.713 -5.009,6.225 -5.009,6.782C-5.009,7.485 -4.8,8.068 -4.38,8.532C-3.96,8.996 -3.477,9.228 -2.929,9.228C-2.188,9.228 -1.211,8.739 0,7.763M0,8.715C-1.377,9.779 -2.241,10.395 -2.593,10.56C-3.12,10.804 -3.682,10.927 -4.277,10.927C-5.205,10.927 -5.969,10.61 -6.569,9.975C-7.17,9.34 -7.47,8.505 -7.47,7.47C-7.47,6.816 -7.324,6.25 -7.031,5.771C-6.63,5.107 -5.935,4.482 -4.943,3.896C-3.952,3.31 -2.305,2.598 0,1.758L0,1.231C0,-0.107 -0.212,-1.025 -0.637,-1.523C-1.062,-2.021 -1.68,-2.27 -2.49,-2.27C-3.105,-2.27 -3.594,-2.104 -3.955,-1.772C-4.326,-1.44 -4.511,-1.059 -4.511,-0.63L-4.482,0.22C-4.482,0.669 -4.597,1.016 -4.826,1.26C-5.056,1.504 -5.356,1.626 -5.727,1.626C-6.088,1.626 -6.384,1.499 -6.613,1.245C-6.843,0.991 -6.957,0.645 -6.957,0.205C-6.957,-0.635 -6.528,-1.406 -5.668,-2.109C-4.809,-2.812 -3.603,-3.164 -2.051,-3.164C-0.86,-3.164 0.117,-2.963 0.879,-2.563C1.455,-2.26 1.879,-1.787 2.153,-1.142C2.329,-0.722 2.417,0.137 2.417,1.436L2.417,5.991C2.417,7.27 2.441,8.054 2.49,8.342C2.539,8.63 2.619,8.823 2.731,8.92C2.844,9.018 2.973,9.067 3.12,9.067C3.276,9.067 3.412,9.032 3.53,8.964C3.735,8.837 4.13,8.481 4.716,7.895L4.716,8.715C3.622,10.18 2.578,10.912 1.582,10.912C1.103,10.912 0.723,10.746 0.439,10.414C0.156,10.082 0.009,9.516 0,8.715" style="fill:rgb(19,28,32);fill-rule:nonzero;"/>
                    </g>
                    <g transform="matrix(1,0,0,1,661.2034,1945.1632)">
                        <path d="M0,-8.128C1.572,-10.022 3.071,-10.97 4.496,-10.97C5.229,-10.97 5.859,-10.787 6.386,-10.42C6.913,-10.054 7.333,-9.451 7.646,-8.611C7.86,-8.026 7.968,-7.127 7.968,-5.917L7.968,-0.19C7.968,0.66 8.036,1.236 8.173,1.539C8.28,1.783 8.453,1.973 8.693,2.11C8.932,2.247 9.374,2.315 10.019,2.315L10.019,2.842L3.383,2.842L3.383,2.315L3.662,2.315C4.287,2.315 4.724,2.22 4.972,2.029C5.221,1.839 5.395,1.558 5.493,1.187C5.531,1.041 5.551,0.582 5.551,-0.19L5.551,-5.682C5.551,-6.903 5.392,-7.789 5.075,-8.341C4.758,-8.892 4.223,-9.168 3.471,-9.168C2.309,-9.168 1.152,-8.533 0,-7.264L0,-0.19C0,0.719 0.054,1.28 0.161,1.495C0.298,1.778 0.486,1.986 0.725,2.117C0.964,2.249 1.45,2.315 2.182,2.315L2.182,2.842L-4.453,2.842L-4.453,2.315L-4.16,2.315C-3.476,2.315 -3.015,2.142 -2.775,1.795C-2.536,1.449 -2.417,0.787 -2.417,-0.19L-2.417,-5.169C-2.417,-6.781 -2.453,-7.762 -2.527,-8.114C-2.6,-8.465 -2.712,-8.704 -2.864,-8.831C-3.015,-8.958 -3.217,-9.022 -3.471,-9.022C-3.745,-9.022 -4.072,-8.948 -4.453,-8.802L-4.672,-9.329L-0.63,-10.97L0,-10.97L0,-8.128Z" style="fill:rgb(19,28,32);fill-rule:nonzero;"/>
                    </g>
                    <g transform="matrix(1,0,0,1,683.4927,1937.3571)">
                        <path d="M0,7.763L0,2.651C-1.475,3.237 -2.427,3.652 -2.856,3.896C-3.628,4.326 -4.179,4.775 -4.511,5.244C-4.843,5.713 -5.009,6.225 -5.009,6.782C-5.009,7.485 -4.8,8.068 -4.379,8.532C-3.96,8.996 -3.477,9.228 -2.929,9.228C-2.187,9.228 -1.211,8.739 0,7.763M0,8.715C-1.377,9.779 -2.241,10.395 -2.593,10.56C-3.12,10.804 -3.682,10.927 -4.277,10.927C-5.205,10.927 -5.969,10.61 -6.569,9.975C-7.17,9.34 -7.47,8.505 -7.47,7.47C-7.47,6.816 -7.324,6.25 -7.031,5.771C-6.63,5.107 -5.934,4.482 -4.943,3.896C-3.952,3.31 -2.305,2.598 0,1.758L0,1.231C0,-0.107 -0.212,-1.025 -0.637,-1.523C-1.062,-2.021 -1.68,-2.27 -2.49,-2.27C-3.105,-2.27 -3.594,-2.104 -3.955,-1.772C-4.326,-1.44 -4.511,-1.059 -4.511,-0.63L-4.482,0.22C-4.482,0.669 -4.597,1.016 -4.826,1.26C-5.056,1.504 -5.356,1.626 -5.727,1.626C-6.088,1.626 -6.384,1.499 -6.613,1.245C-6.843,0.991 -6.957,0.645 -6.957,0.205C-6.957,-0.635 -6.528,-1.406 -5.668,-2.109C-4.809,-2.812 -3.603,-3.164 -2.051,-3.164C-0.86,-3.164 0.117,-2.963 0.879,-2.563C1.455,-2.26 1.879,-1.787 2.153,-1.142C2.329,-0.722 2.417,0.137 2.417,1.436L2.417,5.991C2.417,7.27 2.441,8.054 2.49,8.342C2.539,8.63 2.619,8.823 2.732,8.92C2.844,9.018 2.973,9.067 3.12,9.067C3.276,9.067 3.413,9.032 3.53,8.964C3.735,8.837 4.13,8.481 4.716,7.895L4.716,8.715C3.622,10.18 2.578,10.912 1.582,10.912C1.103,10.912 0.723,10.746 0.44,10.414C0.156,10.082 0.01,9.516 0,8.715" style="fill:rgb(19,28,32);fill-rule:nonzero;"/>
                    </g>
                    <g transform="matrix(1,0,0,1,698.9415,1953.7767)">
                        <path d="M0,-18.88C-0.723,-18.88 -1.328,-18.592 -1.816,-18.016C-2.304,-17.44 -2.548,-16.556 -2.548,-15.365C-2.548,-13.822 -2.217,-12.626 -1.553,-11.776C-1.045,-11.132 -0.4,-10.81 0.381,-10.81C1.123,-10.81 1.733,-11.088 2.212,-11.644C2.69,-12.201 2.929,-13.075 2.929,-14.266C2.929,-15.819 2.593,-17.034 1.919,-17.913C1.421,-18.558 0.781,-18.88 0,-18.88M-2.695,-5.771C-3.154,-5.273 -3.501,-4.81 -3.735,-4.38C-3.969,-3.95 -4.086,-3.555 -4.086,-3.193C-4.086,-2.725 -3.803,-2.315 -3.237,-1.963C-2.261,-1.358 -0.849,-1.055 0.996,-1.055C2.754,-1.055 4.05,-1.365 4.885,-1.985C5.72,-2.605 6.137,-3.266 6.137,-3.97C6.137,-4.477 5.888,-4.839 5.39,-5.054C4.882,-5.268 3.877,-5.395 2.373,-5.434C0.176,-5.493 -1.513,-5.605 -2.695,-5.771M-2.548,-10.663C-3.369,-11.063 -3.998,-11.623 -4.438,-12.34C-4.877,-13.058 -5.097,-13.851 -5.097,-14.72C-5.097,-16.048 -4.597,-17.191 -3.596,-18.148C-2.595,-19.105 -1.313,-19.583 0.249,-19.583C1.528,-19.583 2.636,-19.271 3.574,-18.646L6.416,-18.646C6.835,-18.646 7.079,-18.634 7.148,-18.609C7.216,-18.585 7.265,-18.543 7.294,-18.485C7.353,-18.397 7.382,-18.241 7.382,-18.016C7.382,-17.762 7.357,-17.586 7.309,-17.489C7.28,-17.44 7.228,-17.401 7.155,-17.371C7.082,-17.342 6.835,-17.327 6.416,-17.327L4.672,-17.327C5.219,-16.625 5.493,-15.726 5.493,-14.633C5.493,-13.383 5.014,-12.313 4.057,-11.425C3.1,-10.536 1.816,-10.092 0.205,-10.092C-0.459,-10.092 -1.137,-10.189 -1.831,-10.385C-2.261,-10.014 -2.551,-9.689 -2.702,-9.411C-2.854,-9.133 -2.929,-8.896 -2.929,-8.701C-2.929,-8.534 -2.849,-8.373 -2.688,-8.217C-2.527,-8.061 -2.212,-7.948 -1.743,-7.88C-1.47,-7.841 -0.786,-7.807 0.308,-7.778C2.319,-7.729 3.623,-7.661 4.219,-7.573C5.126,-7.446 5.851,-7.109 6.393,-6.562C6.935,-6.015 7.206,-5.342 7.206,-4.541C7.206,-3.438 6.689,-2.402 5.654,-1.436C4.13,-0.01 2.143,0.703 -0.307,0.703C-2.192,0.703 -3.784,0.278 -5.082,-0.572C-5.815,-1.06 -6.181,-1.567 -6.181,-2.095C-6.181,-2.329 -6.127,-2.564 -6.02,-2.798C-5.854,-3.159 -5.512,-3.662 -4.995,-4.307C-4.926,-4.394 -4.428,-4.922 -3.501,-5.888C-4.008,-6.191 -4.367,-6.462 -4.577,-6.701C-4.787,-6.94 -4.892,-7.211 -4.892,-7.514C-4.892,-7.856 -4.753,-8.256 -4.475,-8.715C-4.196,-9.174 -3.554,-9.823 -2.548,-10.663" style="fill:rgb(19,28,32);fill-rule:nonzero;"/>
                    </g>
                    <g transform="matrix(1,0,0,1,713.6581,1943.8017)">
                        <path d="M0,-5.009L6.21,-5.009C6.161,-5.868 6.059,-6.474 5.902,-6.825C5.658,-7.372 5.295,-7.801 4.812,-8.114C4.328,-8.426 3.823,-8.583 3.295,-8.583C2.485,-8.583 1.76,-8.268 1.12,-7.638C0.481,-7.008 0.107,-6.132 0,-5.009M0,-4.16C-0.01,-2.168 0.473,-0.605 1.45,0.528C2.426,1.66 3.574,2.227 4.892,2.227C5.771,2.227 6.535,1.985 7.184,1.502C7.834,1.018 8.378,0.191 8.817,-0.981L9.271,-0.688C9.066,0.65 8.471,1.868 7.485,2.966C6.498,4.065 5.263,4.614 3.779,4.614C2.168,4.614 0.788,3.987 -0.359,2.732C-1.506,1.477 -2.08,-0.21 -2.08,-2.329C-2.08,-4.623 -1.492,-6.413 -0.315,-7.697C0.862,-8.981 2.338,-9.623 4.116,-9.623C5.619,-9.623 6.855,-9.127 7.821,-8.136C8.788,-7.145 9.271,-5.819 9.271,-4.16L0,-4.16Z" style="fill:rgb(19,28,32);fill-rule:nonzero;"/>
                    </g>
                    <g transform="matrix(1,0,0,1,732.3004,1945.1496)">
                        <path d="M0,-8.1C0.976,-9.076 1.553,-9.638 1.728,-9.784C2.168,-10.155 2.641,-10.443 3.149,-10.648C3.657,-10.854 4.16,-10.956 4.658,-10.956C5.497,-10.956 6.22,-10.712 6.825,-10.224C7.431,-9.735 7.836,-9.028 8.041,-8.1C9.047,-9.272 9.896,-10.041 10.59,-10.407C11.283,-10.773 11.996,-10.956 12.728,-10.956C13.441,-10.956 14.073,-10.773 14.625,-10.407C15.176,-10.041 15.614,-9.442 15.936,-8.613C16.15,-8.046 16.258,-7.157 16.258,-5.947L16.258,-0.176C16.258,0.664 16.321,1.24 16.448,1.552C16.546,1.767 16.727,1.95 16.99,2.102C17.254,2.253 17.683,2.329 18.279,2.329L18.279,2.856L11.659,2.856L11.659,2.329L11.937,2.329C12.513,2.329 12.962,2.216 13.285,1.992C13.509,1.836 13.67,1.587 13.768,1.245C13.807,1.079 13.826,0.605 13.826,-0.176L13.826,-5.947C13.826,-7.04 13.695,-7.812 13.431,-8.261C13.05,-8.886 12.44,-9.198 11.6,-9.198C11.083,-9.198 10.563,-9.069 10.04,-8.81C9.518,-8.551 8.886,-8.071 8.143,-7.368L8.114,-7.207L8.143,-6.577L8.143,-0.176C8.143,0.742 8.195,1.313 8.297,1.538C8.4,1.763 8.593,1.95 8.876,2.102C9.159,2.253 9.642,2.329 10.326,2.329L10.326,2.856L3.545,2.856L3.545,2.329C4.286,2.329 4.797,2.241 5.075,2.065C5.353,1.889 5.546,1.626 5.654,1.274C5.702,1.108 5.727,0.625 5.727,-0.176L5.727,-5.947C5.727,-7.04 5.566,-7.826 5.244,-8.305C4.814,-8.93 4.213,-9.242 3.442,-9.242C2.915,-9.242 2.392,-9.101 1.875,-8.818C1.064,-8.388 0.439,-7.905 0,-7.368L0,-0.176C0,0.703 0.061,1.274 0.183,1.538C0.305,1.801 0.486,1.999 0.725,2.131C0.964,2.263 1.45,2.329 2.182,2.329L2.182,2.856L-4.453,2.856L-4.453,2.329C-3.838,2.329 -3.408,2.263 -3.164,2.131C-2.92,1.999 -2.734,1.789 -2.607,1.501C-2.48,1.213 -2.417,0.654 -2.417,-0.176L-2.417,-5.302C-2.417,-6.777 -2.461,-7.729 -2.549,-8.158C-2.617,-8.481 -2.724,-8.703 -2.871,-8.825C-3.017,-8.947 -3.217,-9.008 -3.471,-9.008C-3.745,-9.008 -4.072,-8.935 -4.453,-8.788L-4.672,-9.316L-0.63,-10.956L0,-10.956L0,-8.1Z" style="fill:rgb(19,28,32);fill-rule:nonzero;"/>
                    </g>
                    <g transform="matrix(1,0,0,1,757.504,1943.8017)">
                        <path d="M0,-5.009L6.21,-5.009C6.161,-5.868 6.059,-6.474 5.902,-6.825C5.658,-7.372 5.295,-7.801 4.812,-8.114C4.328,-8.426 3.823,-8.583 3.295,-8.583C2.485,-8.583 1.76,-8.268 1.12,-7.638C0.481,-7.008 0.107,-6.132 0,-5.009M0,-4.16C-0.01,-2.168 0.473,-0.605 1.45,0.528C2.426,1.66 3.574,2.227 4.892,2.227C5.771,2.227 6.535,1.985 7.184,1.502C7.834,1.018 8.378,0.191 8.817,-0.981L9.271,-0.688C9.066,0.65 8.471,1.868 7.485,2.966C6.498,4.065 5.263,4.614 3.779,4.614C2.168,4.614 0.788,3.987 -0.359,2.732C-1.506,1.477 -2.08,-0.21 -2.08,-2.329C-2.08,-4.623 -1.492,-6.413 -0.315,-7.697C0.862,-8.981 2.338,-9.623 4.116,-9.623C5.619,-9.623 6.855,-9.127 7.821,-8.136C8.788,-7.145 9.271,-5.819 9.271,-4.16L0,-4.16Z" style="fill:rgb(19,28,32);fill-rule:nonzero;"/>
                    </g>
                    <g transform="matrix(1,0,0,1,776.0726,1945.1632)">
                        <path d="M0,-8.128C1.572,-10.022 3.071,-10.97 4.496,-10.97C5.229,-10.97 5.859,-10.787 6.386,-10.42C6.913,-10.054 7.333,-9.451 7.646,-8.611C7.86,-8.026 7.968,-7.127 7.968,-5.917L7.968,-0.19C7.968,0.66 8.036,1.236 8.173,1.539C8.28,1.783 8.453,1.973 8.693,2.11C8.932,2.247 9.374,2.315 10.019,2.315L10.019,2.842L3.383,2.842L3.383,2.315L3.662,2.315C4.286,2.315 4.724,2.22 4.972,2.029C5.221,1.839 5.395,1.558 5.493,1.187C5.531,1.041 5.551,0.582 5.551,-0.19L5.551,-5.682C5.551,-6.903 5.392,-7.789 5.075,-8.341C4.758,-8.892 4.223,-9.168 3.471,-9.168C2.309,-9.168 1.152,-8.533 0,-7.264L0,-0.19C0,0.719 0.054,1.28 0.161,1.495C0.298,1.778 0.486,1.986 0.725,2.117C0.964,2.249 1.45,2.315 2.182,2.315L2.182,2.842L-4.453,2.842L-4.453,2.315L-4.16,2.315C-3.476,2.315 -3.015,2.142 -2.776,1.795C-2.536,1.449 -2.417,0.787 -2.417,-0.19L-2.417,-5.169C-2.417,-6.781 -2.453,-7.762 -2.527,-8.114C-2.6,-8.465 -2.712,-8.704 -2.864,-8.831C-3.015,-8.958 -3.217,-9.022 -3.471,-9.022C-3.745,-9.022 -4.072,-8.948 -4.453,-8.802L-4.672,-9.329L-0.63,-10.97L0,-10.97L0,-8.128Z" style="fill:rgb(19,28,32);fill-rule:nonzero;"/>
                    </g>
                    <g transform="matrix(1,0,0,1,794.6561,1948.2252)">
                        <path d="M0,-18.045L0,-13.636L3.135,-13.636L3.135,-12.611L0,-12.611L0,-3.911C0,-3.041 0.125,-2.456 0.374,-2.153C0.623,-1.85 0.942,-1.699 1.333,-1.699C1.655,-1.699 1.968,-1.799 2.27,-1.999C2.573,-2.199 2.807,-2.495 2.973,-2.885L3.545,-2.885C3.203,-1.928 2.72,-1.208 2.094,-0.725C1.469,-0.242 0.825,0 0.161,0C-0.288,0 -0.727,-0.125 -1.157,-0.374C-1.587,-0.623 -1.904,-0.979 -2.109,-1.443C-2.314,-1.906 -2.417,-2.622 -2.417,-3.589L-2.417,-12.611L-4.54,-12.611L-4.54,-13.094C-4.003,-13.309 -3.454,-13.673 -2.893,-14.186C-2.331,-14.698 -1.831,-15.306 -1.391,-16.009C-1.167,-16.38 -0.855,-17.059 -0.454,-18.045L0,-18.045Z" style="fill:rgb(19,28,32);fill-rule:nonzero;"/>
                    </g>
                    <g transform="matrix(1,0,0,1,831.2659,1948.4592)">
                        <path d="M0,-20.769L0.512,-14.5L0,-14.5C-0.518,-16.062 -1.187,-17.239 -2.007,-18.03C-3.188,-19.172 -4.707,-19.744 -6.562,-19.744C-9.091,-19.744 -11.015,-18.742 -12.333,-16.741C-13.436,-15.052 -13.988,-13.04 -13.988,-10.706C-13.988,-8.812 -13.622,-7.084 -12.889,-5.522C-12.157,-3.959 -11.198,-2.814 -10.011,-2.087C-8.825,-1.359 -7.607,-0.996 -6.357,-0.996C-5.625,-0.996 -4.917,-1.088 -4.233,-1.274C-3.55,-1.459 -2.891,-1.733 -2.256,-2.094L-2.256,-7.836C-2.256,-8.832 -2.331,-9.483 -2.483,-9.791C-2.634,-10.099 -2.869,-10.333 -3.186,-10.494C-3.503,-10.655 -4.062,-10.736 -4.863,-10.736L-4.863,-11.292L2.827,-11.292L2.827,-10.736L2.46,-10.736C1.699,-10.736 1.176,-10.482 0.893,-9.974C0.698,-9.613 0.6,-8.9 0.6,-7.836L0.6,-1.757C-0.523,-1.152 -1.631,-0.708 -2.724,-0.425C-3.818,-0.141 -5.034,0 -6.372,0C-10.209,0 -13.124,-1.23 -15.116,-3.691C-16.61,-5.536 -17.357,-7.665 -17.357,-10.077C-17.357,-11.824 -16.937,-13.499 -16.097,-15.101C-15.101,-17.005 -13.734,-18.469 -11.996,-19.495C-10.541,-20.344 -8.823,-20.769 -6.84,-20.769C-6.118,-20.769 -5.461,-20.71 -4.87,-20.593C-4.279,-20.476 -3.442,-20.217 -2.358,-19.817C-1.812,-19.612 -1.445,-19.509 -1.26,-19.509C-1.074,-19.509 -0.916,-19.595 -0.784,-19.766C-0.652,-19.936 -0.572,-20.271 -0.542,-20.769L0,-20.769Z" style="fill:rgb(19,28,32);fill-rule:nonzero;"/>
                    </g>
                    <g transform="matrix(1,0,0,1,842.98,1948.0055)">
                        <path d="M0,-13.812L0,-10.795C1.123,-12.806 2.275,-13.812 3.457,-13.812C3.994,-13.812 4.438,-13.648 4.79,-13.321C5.141,-12.994 5.317,-12.616 5.317,-12.186C5.317,-11.805 5.19,-11.483 4.936,-11.22C4.682,-10.956 4.379,-10.824 4.028,-10.824C3.686,-10.824 3.303,-10.992 2.878,-11.329C2.454,-11.666 2.138,-11.835 1.934,-11.835C1.758,-11.835 1.567,-11.737 1.362,-11.542C0.923,-11.141 0.469,-10.482 0,-9.564L0,-3.134C0,-2.392 0.093,-1.831 0.279,-1.45C0.405,-1.186 0.63,-0.967 0.952,-0.791C1.274,-0.615 1.738,-0.527 2.344,-0.527L2.344,0L-4.526,0L-4.526,-0.527C-3.842,-0.527 -3.335,-0.634 -3.002,-0.849C-2.759,-1.006 -2.587,-1.255 -2.49,-1.597C-2.441,-1.762 -2.417,-2.236 -2.417,-3.017L-2.417,-8.217C-2.417,-9.779 -2.448,-10.709 -2.512,-11.007C-2.576,-11.305 -2.692,-11.522 -2.863,-11.659C-3.034,-11.795 -3.247,-11.864 -3.501,-11.864C-3.803,-11.864 -4.145,-11.791 -4.526,-11.644L-4.672,-12.171L-0.615,-13.812L0,-13.812Z" style="fill:rgb(19,28,32);fill-rule:nonzero;"/>
                    </g>
                    <g transform="matrix(1,0,0,1,858.7513,1947.4636)">
                        <path d="M0,-12.318C-0.518,-12.318 -1.038,-12.164 -1.56,-11.857C-2.083,-11.549 -2.505,-11.009 -2.827,-10.238C-3.149,-9.467 -3.31,-8.476 -3.31,-7.265C-3.31,-5.312 -2.922,-3.627 -2.146,-2.212C-1.369,-0.796 -0.347,-0.088 0.923,-0.088C1.87,-0.088 2.651,-0.478 3.266,-1.26C3.882,-2.041 4.189,-3.383 4.189,-5.288C4.189,-7.67 3.676,-9.545 2.651,-10.912C1.958,-11.849 1.074,-12.318 0,-12.318M0.454,-13.27C2.485,-13.27 4.116,-12.499 5.346,-10.956C6.391,-9.638 6.913,-8.124 6.913,-6.415C6.913,-5.214 6.625,-3.999 6.049,-2.768C5.473,-1.538 4.68,-0.61 3.669,0.015C2.658,0.639 1.533,0.952 0.293,0.952C-1.728,0.952 -3.335,0.146 -4.526,-1.465C-5.532,-2.822 -6.034,-4.345 -6.034,-6.035C-6.034,-7.265 -5.73,-8.488 -5.119,-9.703C-4.509,-10.919 -3.705,-11.818 -2.71,-12.399C-1.714,-12.979 -0.659,-13.27 0.454,-13.27" style="fill:rgb(19,28,32);fill-rule:nonzero;"/>
                    </g>
                    <g transform="matrix(1,0,0,1,883.0031,1948.4159)">
                        <path d="M0,-13.827L0,-5.698C0,-4.145 0.037,-3.195 0.11,-2.849C0.183,-2.502 0.3,-2.261 0.461,-2.124C0.622,-1.987 0.81,-1.919 1.025,-1.919C1.328,-1.919 1.669,-2.002 2.05,-2.168L2.255,-1.656L-1.758,0L-2.417,0L-2.417,-2.842C-3.569,-1.592 -4.448,-0.806 -5.053,-0.484C-5.659,-0.161 -6.298,0 -6.972,0C-7.724,0 -8.376,-0.218 -8.927,-0.652C-9.479,-1.086 -9.863,-1.646 -10.077,-2.329C-10.292,-3.013 -10.4,-3.979 -10.4,-5.229L-10.4,-11.22C-10.4,-11.854 -10.468,-12.294 -10.604,-12.538C-10.741,-12.782 -10.944,-12.97 -11.212,-13.102C-11.481,-13.234 -11.967,-13.295 -12.67,-13.285L-12.67,-13.827L-7.968,-13.827L-7.968,-4.848C-7.968,-3.598 -7.751,-2.778 -7.316,-2.388C-6.882,-1.997 -6.357,-1.802 -5.742,-1.802C-5.322,-1.802 -4.846,-1.934 -4.314,-2.197C-3.782,-2.461 -3.149,-2.964 -2.417,-3.706L-2.417,-11.307C-2.417,-12.069 -2.556,-12.584 -2.834,-12.853C-3.112,-13.121 -3.691,-13.265 -4.57,-13.285L-4.57,-13.827L0,-13.827Z" style="fill:rgb(19,28,32);fill-rule:nonzero;"/>
                    </g>
                    <g transform="matrix(1,0,0,1,893.56,1950.3637)">
                        <path d="M0,-12.113L0,-7.104C0,-6.02 0.044,-5.307 0.132,-4.965C0.268,-4.399 0.603,-3.901 1.135,-3.471C1.667,-3.042 2.339,-2.827 3.149,-2.827C4.126,-2.827 4.916,-3.208 5.522,-3.969C6.313,-4.965 6.708,-6.367 6.708,-8.173C6.708,-10.223 6.259,-11.8 5.361,-12.904C4.736,-13.666 3.994,-14.047 3.134,-14.047C2.666,-14.047 2.202,-13.929 1.743,-13.695C1.392,-13.519 0.81,-12.992 0,-12.113M-4.687,-14.442L-0.556,-16.111L0,-16.111L0,-12.977C0.693,-14.159 1.389,-14.986 2.087,-15.46C2.785,-15.933 3.52,-16.17 4.291,-16.17C5.639,-16.17 6.762,-15.643 7.66,-14.588C8.763,-13.299 9.315,-11.62 9.315,-9.55C9.315,-7.236 8.651,-5.322 7.323,-3.808C6.23,-2.568 4.853,-1.948 3.193,-1.948C2.47,-1.948 1.846,-2.051 1.318,-2.256C0.927,-2.402 0.488,-2.695 0,-3.135L0,0.952C0,1.87 0.056,2.453 0.168,2.702C0.281,2.951 0.476,3.149 0.754,3.296C1.033,3.442 1.538,3.515 2.27,3.515L2.27,4.057L-4.76,4.057L-4.76,3.515L-4.394,3.515C-3.857,3.525 -3.398,3.422 -3.017,3.208C-2.832,3.1 -2.688,2.927 -2.585,2.687C-2.483,2.448 -2.432,1.84 -2.432,0.864L-2.432,-11.82C-2.432,-12.689 -2.471,-13.241 -2.548,-13.475C-2.627,-13.71 -2.751,-13.885 -2.922,-14.003C-3.093,-14.12 -3.325,-14.178 -3.618,-14.178C-3.852,-14.178 -4.15,-14.11 -4.511,-13.973L-4.687,-14.442Z" style="fill:rgb(19,28,32);fill-rule:nonzero;"/>
                    </g>
                    <g transform="matrix(1,0,0,1,716.8514,1904.5209)">
                        <path d="M0,-52.809C2.529,-47.535 5.924,-42.983 10.476,-39.299C14.593,-43.417 17.772,-48.04 19.867,-52.809L0,-52.809ZM19.723,-54.615C22.178,-56.999 22.612,-57.287 23.045,-57.287C23.623,-57.287 24.129,-56.927 26.368,-54.976C27.525,-53.82 27.813,-53.459 27.813,-52.953C27.813,-52.23 27.163,-51.652 25.284,-51.002C21.962,-45.151 18.35,-40.528 13.943,-36.771C19.723,-33.014 26.224,-30.991 33.014,-30.269C33.376,-30.197 33.304,-29.546 32.942,-29.474C31.137,-28.969 30.342,-28.174 29.692,-25.718C29.475,-24.851 29.114,-24.562 28.68,-24.562C28.391,-24.562 27.091,-24.995 25.574,-25.574C20.083,-27.524 15.099,-30.703 10.764,-34.242C6.43,-31.064 1.373,-28.608 -4.768,-26.512C-5.273,-26.368 -5.635,-27.379 -5.201,-27.597C-0.216,-30.342 4.19,-33.448 7.947,-36.916C3.684,-41.467 0.65,-46.957 -1.661,-52.809L-2.889,-52.809C-4.551,-52.809 -5.707,-52.736 -7.44,-52.303L-8.308,-55.192C-5.779,-54.759 -4.479,-54.615 -2.745,-54.615L19.723,-54.615ZM22.756,1.589C25.718,-2.239 26.224,-2.528 26.657,-2.528C27.163,-2.528 27.669,-2.239 30.992,0.578C32.437,1.807 32.798,2.312 32.798,2.746C32.798,3.179 32.509,3.396 31.859,3.396L-5.707,3.396C-7.296,3.396 -8.524,3.54 -10.475,3.829L-11.198,1.011C-9.03,1.445 -7.658,1.589 -5.707,1.589L7.008,1.589L7.008,-14.882L-1.228,-14.882C-2.745,-14.882 -3.828,-14.738 -5.635,-14.448L-6.429,-17.193C-4.334,-16.759 -3.034,-16.687 -1.228,-16.687L7.008,-16.687L7.008,-19.65C7.008,-23.695 6.936,-26.224 6.646,-28.535C13.509,-27.885 14.376,-27.307 14.376,-26.585C14.376,-26.08 13.798,-25.574 12.065,-24.779L12.065,-16.687L20.228,-16.687C22.973,-20.011 23.479,-20.372 23.913,-20.372C24.418,-20.372 24.924,-20.011 27.958,-17.627C29.33,-16.543 29.62,-16.037 29.62,-15.604C29.62,-15.098 29.402,-14.882 28.68,-14.882L12.065,-14.882L12.065,1.589L22.756,1.589ZM-11.558,-8.958C-11.848,-12.57 -12.931,-16.327 -14.376,-19.072C-14.52,-19.361 -14.015,-19.65 -13.798,-19.433C-9.463,-15.893 -6.791,-11.558 -6.791,-8.163C-6.791,-5.779 -7.874,-4.406 -9.463,-4.406C-10.98,-4.406 -11.27,-5.129 -11.558,-8.958M-22.25,-39.588C-22.25,-37.782 -23.406,-36.41 -24.707,-36.41C-26.08,-36.41 -26.44,-36.771 -27.235,-39.733C-28.102,-42.695 -29.764,-45.368 -32.292,-47.608C-32.509,-47.824 -32.147,-48.258 -31.859,-48.185C-29.836,-47.535 -28.102,-46.74 -26.657,-45.873C-25.212,-48.546 -23.911,-51.58 -22.828,-54.47C-22.178,-56.421 -21.745,-58.227 -21.528,-59.6C-15.893,-57.649 -14.448,-56.855 -14.448,-56.132C-14.448,-55.41 -15.026,-54.976 -17.265,-54.904C-20.517,-50.425 -22.178,-48.112 -25.429,-44.934C-23.334,-43.345 -22.25,-41.467 -22.25,-39.588M-21.383,-25.646C-23.839,-25.068 -26.44,-24.635 -29.402,-24.201C-29.908,-22.54 -30.342,-22.106 -30.919,-22.106C-31.641,-22.106 -32.075,-23.334 -33.086,-28.896C-31.569,-28.752 -30.847,-28.752 -29.764,-28.752C-28.535,-28.752 -27.379,-28.752 -26.296,-28.824C-23.262,-32.87 -20.011,-37.855 -17.482,-42.695C-16.182,-45.368 -15.098,-47.824 -14.52,-49.775C-9.608,-47.463 -8.091,-46.451 -8.091,-45.657C-8.091,-45.006 -8.669,-44.5 -10.764,-44.5C-15.315,-38.216 -18.422,-34.17 -24.129,-28.896C-20.661,-28.969 -17.193,-29.186 -11.486,-29.692C-11.992,-31.497 -12.787,-33.232 -14.015,-35.181C-14.159,-35.399 -13.653,-35.687 -13.437,-35.543C-8.741,-32.581 -5.851,-28.68 -5.851,-25.501C-5.851,-23.551 -7.007,-22.467 -8.452,-22.467C-9.681,-22.467 -10.403,-23.334 -10.764,-26.006C-10.836,-26.802 -10.98,-27.597 -11.125,-28.319C-13.003,-27.741 -14.882,-27.235 -16.76,-26.729L-16.76,-12.787C-16.76,-4.912 -16.471,2.312 -16.471,4.479C-16.471,6.069 -17.555,6.791 -19.505,6.791C-21.095,6.791 -21.817,6.213 -21.817,4.913C-21.817,3.612 -21.383,-1.156 -21.383,-9.897L-21.383,-25.646ZM-33.809,0.578C-32.292,-3.54 -31.209,-8.091 -30.486,-11.992C-29.908,-14.954 -29.619,-17.771 -29.619,-19.939C-23.911,-18.277 -22.973,-17.844 -22.973,-16.977C-22.973,-16.399 -23.479,-16.037 -25.14,-15.676C-27.018,-9.391 -29.258,-3.828 -32.87,1.011C-33.159,1.373 -33.954,1.011 -33.809,0.578" style="fill:rgb(19,28,32);fill-rule:nonzero;"/>
                    </g>
                    <g transform="matrix(1,0,0,1,791.6223,1903.2925)">
                        <path d="M0,-50.424C-0.795,-53.314 -1.807,-55.409 -3.685,-57.721C-3.901,-57.938 -3.54,-58.371 -3.252,-58.299C2.455,-56.637 5.562,-53.458 5.562,-50.352C5.562,-48.546 4.623,-46.957 2.601,-46.957C1.083,-46.957 0.578,-47.679 0,-50.424M13.943,-33.809L-12.137,-33.809L-12.137,-23.623L13.943,-23.623L13.943,-33.809ZM19.794,-10.908L-17.772,-10.908L-17.772,1.734L19.794,1.734L19.794,-10.908ZM-15.099,-49.486C-15.821,-52.231 -17.05,-54.759 -18.783,-56.565C-19,-56.782 -18.567,-57.216 -18.278,-57.142C-12.571,-55.553 -9.392,-52.519 -9.392,-49.341C-9.392,-47.607 -10.548,-46.018 -12.281,-46.018C-13.87,-46.018 -14.304,-46.596 -15.099,-49.486M-5.78,-12.714C-4.696,-15.676 -3.974,-18.71 -3.54,-21.817L-12.137,-21.817L-12.137,-21.239C-12.137,-19.577 -13.004,-18.783 -15.099,-18.783C-16.833,-18.783 -17.41,-19.288 -17.41,-20.733C-17.41,-21.961 -17.194,-23.912 -17.194,-30.702C-17.194,-34.025 -17.194,-35.759 -17.556,-38.576C-14.954,-37.565 -13.87,-37.059 -11.27,-35.615L13.365,-35.615C15.604,-38.071 15.965,-38.288 16.399,-38.288C16.977,-38.288 17.337,-38.071 19.722,-35.976C20.733,-34.964 21.022,-34.531 21.022,-34.098C21.022,-33.592 20.661,-33.231 19.144,-32.147L19.144,-29.619C19.144,-24.128 19.288,-21.889 19.288,-21.094C19.288,-19.649 18.205,-18.855 16.254,-18.855C14.448,-18.855 13.943,-19.433 13.943,-21.022L13.943,-21.817L2.745,-21.817C0.866,-18.638 -1.084,-15.604 -3.324,-12.714L19.288,-12.714C21.455,-15.243 21.817,-15.531 22.25,-15.531C22.756,-15.531 23.19,-15.243 25.718,-13.148C26.802,-12.136 27.09,-11.703 27.09,-11.269C27.09,-10.691 26.729,-10.186 25.14,-9.246L25.14,-5.634C25.14,1.228 25.357,4.407 25.357,5.274C25.357,7.008 24.273,7.875 22.178,7.875C20.299,7.875 19.794,7.153 19.794,5.708L19.794,3.541L-17.772,3.541L-17.772,5.346C-17.772,7.081 -18.783,7.947 -21.022,7.947C-22.757,7.947 -23.263,7.225 -23.263,5.924C-23.263,4.696 -22.973,2.529 -22.973,-4.84C-22.973,-9.608 -23.045,-12.208 -23.335,-15.82C-20.734,-14.665 -19.577,-14.087 -17.122,-12.714L-5.78,-12.714ZM-22.034,-42.984C-22.034,-37.349 -24.635,-33.592 -27.669,-33.592C-29.403,-33.592 -30.559,-34.82 -30.559,-36.481C-30.559,-37.782 -29.981,-38.576 -28.247,-39.516C-25.14,-41.322 -23.768,-44.067 -23.407,-47.969C-23.407,-48.329 -22.685,-48.401 -22.612,-48.041C-22.323,-46.884 -22.179,-45.801 -22.106,-44.789L11.92,-44.789C13.653,-47.535 15.242,-50.352 16.471,-53.025C17.41,-54.831 18.06,-56.565 18.494,-58.01C24.273,-55.409 25.573,-54.615 25.573,-53.892C25.573,-52.953 25.067,-52.736 22.394,-52.736C18.927,-49.052 16.832,-47.101 13.943,-44.789L24.923,-44.789C27.451,-47.535 27.813,-47.823 28.319,-47.823C28.897,-47.823 29.402,-47.39 32.292,-44.645C33.736,-43.2 34.026,-42.766 34.026,-42.261C34.026,-41.322 33.231,-40.961 31.136,-40.889C30.196,-40.817 29.764,-40.599 28.319,-39.227C27.018,-37.999 25.862,-37.132 23.478,-35.542C23.262,-35.398 22.684,-35.687 22.828,-35.976C24.201,-38.722 24.851,-40.094 25.646,-42.984L-22.034,-42.984Z" style="fill:rgb(19,28,32);fill-rule:nonzero;"/>
                    </g>
                    <g transform="matrix(1,0,0,1,884.3093,1894.3353)">
                        <path d="M0,-34.46C-0.289,-30.125 -0.795,-25.719 -2.167,-21.601C0.795,-18.855 2.384,-16.11 2.384,-14.16C2.384,-12.715 1.517,-11.487 0.362,-11.487C-0.939,-11.487 -1.445,-11.993 -2.601,-14.665C-3.034,-15.532 -3.54,-16.4 -4.046,-17.266C-4.479,-16.472 -4.985,-15.677 -5.491,-14.955C-9.103,-9.97 -14.015,-6.647 -21.528,-3.323C-21.962,-3.107 -22.468,-4.046 -22.034,-4.335C-15.677,-8.38 -11.631,-12.065 -8.741,-17.122C-8.019,-18.422 -7.368,-19.722 -6.863,-21.239C-8.813,-23.696 -11.126,-26.007 -13.509,-27.886C-13.798,-28.102 -13.437,-28.753 -13.075,-28.608C-10.331,-27.38 -7.874,-25.935 -5.851,-24.562C-5.129,-27.814 -4.768,-31.136 -4.551,-34.46L-7.802,-34.46C-10.114,-34.388 -11.342,-34.315 -12.787,-33.954L-13.437,-36.771C-11.198,-36.338 -9.753,-36.266 -7.802,-36.266L-4.479,-36.266C-4.407,-37.638 -4.407,-39.156 -4.407,-40.745C-4.407,-45.152 -4.479,-46.524 -4.84,-49.342C1.951,-48.547 2.456,-48.33 2.456,-47.391C2.456,-46.813 2.095,-46.38 0.289,-45.658C0.289,-42.478 0.216,-38.144 0.072,-36.266L4.84,-36.266C6.574,-38.506 6.936,-38.794 7.44,-38.794C7.946,-38.794 8.38,-38.506 10.548,-36.771C11.631,-35.832 11.92,-35.399 11.92,-34.966C11.92,-34.388 11.558,-34.026 9.969,-33.015C9.969,-25.501 10.186,-21.456 10.692,-17.844C11.126,-14.883 11.848,-12.354 12.931,-10.259C13.365,-9.32 13.581,-8.958 13.943,-8.958C14.304,-8.958 15.026,-10.62 17.049,-16.688C17.193,-17.05 17.916,-16.832 17.844,-16.472C16.977,-10.403 16.687,-7.875 16.687,-7.297C16.687,-6.43 16.905,-5.996 17.482,-5.418C17.988,-4.696 18.132,-4.118 18.132,-3.468C18.132,-2.096 17.193,-1.301 15.677,-1.301C14.304,-1.301 12.931,-2.24 11.558,-3.829C8.885,-6.791 7.008,-11.993 6.285,-17.122C5.635,-21.601 5.346,-26.224 5.346,-34.46L0,-34.46ZM-22.106,-34.966L-37.204,-34.966L-37.204,-29.692L-22.106,-29.692L-22.106,-34.966ZM-37.204,-27.596C-37.204,-26.152 -37.999,-25.501 -39.95,-25.501C-41.322,-25.501 -41.901,-25.935 -41.901,-27.091C-41.901,-27.814 -41.756,-29.041 -41.756,-33.159C-41.756,-35.76 -41.756,-36.483 -42.045,-39.156C-39.733,-38.36 -38.721,-37.927 -36.698,-36.771L-22.54,-36.771C-20.661,-38.866 -20.227,-39.083 -19.795,-39.083C-19.361,-39.083 -18.855,-38.866 -16.977,-37.277C-15.965,-36.483 -15.677,-36.049 -15.677,-35.544C-15.677,-35.038 -15.965,-34.676 -17.483,-33.737L-17.483,-32.653C-17.483,-29.909 -17.338,-28.68 -17.338,-28.247C-17.338,-26.874 -18.278,-26.224 -20.011,-26.224C-21.528,-26.224 -22.106,-26.658 -22.106,-27.886L-37.204,-27.886L-37.204,-27.596ZM-19.939,-42.696C-17.41,-45.658 -16.905,-46.018 -16.471,-46.018C-15.965,-46.018 -15.532,-45.658 -12.859,-43.49C-11.703,-42.55 -11.414,-42.118 -11.414,-41.54C-11.414,-41.106 -11.631,-40.889 -12.353,-40.889L-41.683,-40.889C-43.056,-40.889 -44.212,-40.745 -45.945,-40.455L-46.668,-43.201C-44.646,-42.768 -43.345,-42.696 -41.611,-42.696L-31.931,-42.696L-31.931,-44.646C-31.931,-46.236 -32.003,-47.247 -32.22,-49.558C-25.79,-48.836 -24.996,-48.258 -24.996,-47.535C-24.996,-47.102 -25.284,-46.596 -27.235,-45.946L-27.235,-42.696L-19.939,-42.696ZM8.308,12.858C11.486,9.318 11.992,8.886 12.425,8.886C12.931,8.886 13.437,9.318 16.76,11.992C18.205,13.148 18.566,13.581 18.566,14.015C18.566,14.448 18.35,14.665 17.627,14.665L-41.683,14.665C-43.418,14.665 -44.646,14.809 -46.596,15.098L-47.318,12.353C-45.151,12.786 -43.706,12.858 -41.828,12.858L-17.844,12.858L-17.844,3.901L-35.471,3.901C-37.132,3.901 -38.216,3.973 -40.094,4.262L-40.816,1.516C-38.794,1.95 -37.421,2.094 -35.615,2.094L-17.844,2.094L-17.844,1.589C-17.844,-0.723 -17.988,-2.601 -18.205,-4.84C-11.198,-4.191 -10.403,-3.685 -10.403,-2.962C-10.403,-2.384 -10.836,-1.878 -12.643,-1.301L-12.643,2.094L0.506,2.094C3.54,-1.445 4.046,-1.734 4.479,-1.734C4.985,-1.734 5.635,-1.518 8.669,1.011C10.114,2.239 10.403,2.745 10.403,3.179C10.403,3.684 10.186,3.901 9.463,3.901L-12.643,3.901L-12.643,12.858L8.308,12.858ZM-21.239,-23.912C-19.795,-25.429 -19.289,-25.647 -18.855,-25.647C-18.35,-25.647 -17.772,-25.357 -15.821,-23.551C-14.954,-22.757 -14.592,-22.251 -14.592,-21.817C-14.592,-21.095 -15.388,-20.806 -17.844,-20.734C-20.445,-19.506 -22.25,-18.783 -25.502,-17.917C-25.284,-17.7 -25.212,-17.555 -25.212,-17.338C-25.212,-16.905 -25.574,-16.616 -27.379,-16.038L-27.379,-14.809C-22.395,-15.171 -17.338,-15.749 -12.425,-16.472C-12.064,-16.544 -11.92,-15.677 -12.281,-15.605C-17.121,-14.16 -22.106,-13.004 -27.379,-12.137C-27.379,-8.236 -27.235,-6.791 -27.235,-5.202C-27.235,-3.541 -27.957,-2.456 -28.824,-1.59C-29.764,-0.723 -31.137,-0.145 -32.581,-0.145C-33.448,-0.145 -33.592,-0.361 -33.809,-1.518C-34.098,-2.89 -34.965,-3.541 -39.95,-4.624C-40.311,-4.696 -40.311,-5.563 -39.95,-5.563C-36.482,-5.274 -34.604,-5.202 -33.086,-5.202C-32.22,-5.202 -31.931,-5.563 -31.859,-6.43L-31.859,-11.415C-35.615,-10.837 -39.589,-10.403 -43.706,-9.97C-44.284,-8.308 -44.646,-7.947 -45.223,-7.947C-45.945,-7.947 -46.163,-8.091 -47.463,-14.232C-46.018,-14.015 -45.296,-14.015 -44.068,-14.015C-40.311,-14.087 -36.121,-14.232 -31.859,-14.521C-31.859,-16.472 -31.931,-17.122 -32.22,-19.217C-29.692,-18.928 -28.03,-18.711 -27.019,-18.422C-24.996,-19.578 -23.479,-20.734 -21.89,-22.107L-40.094,-22.107C-41.901,-22.107 -42.984,-22.035 -44.718,-21.601L-45.44,-24.418C-43.273,-24.056 -42.045,-23.912 -40.094,-23.912L-21.239,-23.912Z" style="fill:rgb(19,28,32);fill-rule:nonzero;"/>
                    </g>
                    <g transform="matrix(1,0,0,1,498.1805,1863.7697)">
                        <path d="M0,28.55C0,32.811 -2.011,36.542 -5.972,39.653C-9.953,42.765 -15.165,44.345 -21.447,44.345C-23.428,44.345 -25.319,44.215 -27.069,43.975C-28.149,43.825 -30.41,43.285 -33.601,42.415C-36.982,41.484 -39.093,41.034 -40.053,41.034C-41.014,41.034 -41.794,41.294 -42.394,41.794C-42.924,42.254 -43.305,43.095 -43.555,44.345L-44.635,44.345L-44.635,25.148L-43.545,25.148C-42.664,29.2 -41.454,32.301 -39.963,34.362C-38.433,36.482 -36.052,38.273 -32.891,39.684C-29.77,41.074 -26.279,41.784 -22.518,41.784C-18.186,41.784 -14.675,40.804 -12.104,38.853C-9.543,36.883 -8.243,34.532 -8.243,31.851C-8.243,30.37 -8.733,28.85 -9.713,27.309C-10.674,25.819 -12.194,24.408 -14.215,23.108C-15.585,22.228 -19.276,20.367 -25.188,17.596C-31.121,14.825 -35.362,12.585 -37.813,10.944C-40.243,9.353 -42.124,7.543 -43.415,5.572C-44.665,3.632 -45.305,1.471 -45.305,-0.85C-45.305,-4.902 -43.425,-8.433 -39.713,-11.353C-35.992,-14.305 -31.17,-15.795 -25.398,-15.795C-21.767,-15.795 -17.876,-15.035 -13.835,-13.544C-11.834,-12.804 -10.453,-12.444 -9.613,-12.444C-8.613,-12.444 -7.773,-12.704 -7.132,-13.204C-6.542,-13.674 -6.072,-14.524 -5.722,-15.795L-4.622,-15.795L-4.622,3.562L-5.692,3.562C-6.322,-0.19 -7.432,-3.231 -9.013,-5.481C-10.614,-7.812 -12.954,-9.703 -15.965,-11.094C-18.976,-12.454 -22.107,-13.144 -25.288,-13.144C-28.94,-13.144 -32.001,-12.194 -34.392,-10.323C-36.802,-8.442 -38.033,-6.252 -38.033,-3.811C-38.033,-1.95 -37.252,-0.23 -35.732,1.301C-33.571,3.482 -28.439,6.402 -20.467,9.994C-17.256,11.434 -14.515,12.735 -12.314,13.845C-10.133,14.945 -8.423,15.895 -7.232,16.676C-4.922,18.186 -3.121,20.007 -1.861,22.078C-0.63,24.129 0,26.309 0,28.55" style="fill:rgb(19,28,32);fill-rule:nonzero;"/>
                    </g>
                    <g transform="matrix(1,0,0,1,582.6083,1897.0813)">
                        <path d="M0,-38.073L0,-0C0,3.721 0.43,6.002 1.31,6.962C2.441,8.253 4.232,8.903 6.632,8.903L8.263,8.903L8.263,9.703L-15.705,9.703L-15.705,8.903L-14.035,8.903C-11.404,8.903 -9.543,8.092 -8.473,6.502C-7.783,5.502 -7.452,3.371 -7.452,-0L-7.452,-40.734L-30.57,9.703L-31.491,9.703L-53.898,-39.093L-54.658,-40.714L-54.658,-0C-54.658,3.701 -54.238,5.982 -53.398,6.962C-52.247,8.253 -50.457,8.903 -48.076,8.903L-46.405,8.903L-46.405,9.703L-65.892,9.703L-65.892,8.903L-64.221,8.903C-61.641,8.903 -59.77,8.092 -58.649,6.502C-57.969,5.492 -57.639,3.371 -57.639,-0L-57.639,-38.073C-57.639,-40.714 -57.949,-42.655 -58.539,-43.825C-58.99,-44.745 -59.8,-45.505 -60.93,-46.096C-61.991,-46.646 -63.661,-46.946 -65.892,-46.966L-65.892,-47.776L-50.037,-47.776L-29,-2.411L-28.639,-1.641L-7.592,-47.776L8.263,-47.776L8.263,-46.966L6.632,-46.966C4.011,-46.966 2.121,-46.156 1.01,-44.565C0.33,-43.565 0,-41.434 0,-38.073" style="fill:rgb(19,28,32);fill-rule:nonzero;"/>
                    </g>
                    <g transform="matrix(1,0,0,1,664.576,1877.8647)">
                        <path d="M0,0.36L0,1.21L-0.68,1.21C-3.051,1.21 -4.712,2.031 -5.622,3.651C-6.222,4.761 -6.532,6.942 -6.532,10.113L-6.532,25.249C-9.663,26.929 -12.844,28.199 -15.985,29.019C-19.146,29.84 -22.718,30.25 -26.589,30.25C-37.663,30.25 -46.195,26.649 -51.927,19.567C-56.229,14.255 -58.42,8.043 -58.42,1.09C-58.42,-3.951 -57.189,-8.853 -54.768,-13.484C-51.907,-18.956 -47.906,-23.238 -42.884,-26.209C-38.703,-28.65 -33.681,-29.89 -27.959,-29.89C-25.879,-29.89 -23.958,-29.72 -22.257,-29.39C-20.507,-29.03 -17.986,-28.25 -14.955,-27.119C-13.264,-26.489 -12.194,-26.199 -11.584,-26.199C-10.914,-26.199 -10.343,-26.499 -9.883,-27.099C-9.463,-27.639 -9.223,-28.55 -9.123,-29.89L-8.263,-29.89L-6.812,-12.294L-7.613,-12.294C-9.133,-16.785 -11.114,-20.237 -13.505,-22.528C-17.036,-25.949 -21.627,-27.679 -27.149,-27.679C-34.662,-27.679 -40.464,-24.648 -44.405,-18.686C-47.666,-13.685 -49.326,-7.663 -49.326,-0.76C-49.326,4.832 -48.226,10.003 -46.065,14.615C-43.885,19.256 -40.994,22.698 -37.472,24.858C-33.931,27.019 -30.26,28.119 -26.549,28.119C-24.368,28.119 -22.227,27.839 -20.207,27.299C-18.146,26.729 -16.165,25.899 -14.335,24.848L-14.125,24.749L-14.125,10.113C-14.125,7.112 -14.355,5.182 -14.825,4.211C-15.305,3.231 -16.055,2.481 -17.056,1.971C-18.006,1.491 -19.546,1.25 -21.767,1.221L-21.767,0.36L0,0.36Z" style="fill:rgb(19,28,32);fill-rule:nonzero;"/>
                    </g>
                    <g transform="matrix(1,0,0,1,308.16,1901.3186)">
                        <path d="M0,-3.38L35.278,-3.38L35.278,-38.669L0,-3.38ZM73.788,35.279L109.065,-0.011L73.788,-0.011L73.788,35.279ZM56.217,52.836L70.408,38.658L70.408,-42.048L56.217,-56.227L56.217,52.836ZM38.657,-42.048L38.657,38.658L52.837,52.837L52.837,-56.228L38.657,-42.048ZM4.747,9.525L9.526,9.525L35.278,35.278L35.278,-0.011L-4.778,-0.011L-6.472,-1.696L54.533,-62.69L104.307,-12.915L99.53,-12.915L73.788,-38.669L73.788,-3.38L113.843,-3.38L115.528,-1.695L54.533,59.31L4.747,9.525Z" style="fill:rgb(19,28,32);fill-rule:nonzero;"/>
                    </g>
                </g>
            </g>
        </g>
    </g>
</svg>
